PathFileType	4	(X/Y/Z)	P:\Projects\LMB_grand_challenge_database\project_only\opensim\experimental_data\SixthCompetition/DM_ngait_og5_new.trc
DataRate	CameraRate	NumFrames	NumMarkers	Units	OrigDataRate	OrigDataStartFrame	OrigNumFrames
120	120	5	68	mm	120	85	342
Frame#	Time	Sternum			Neck			R_Shoulder			L_Shoulder			Xiphoid			Thoracic			R_Asis			L_Asis			R_Psis			L_Psis			Lumbar			R_Elbow			R_ElbowMedial			R_ShoulderAnterior			R_ShoulderPosterior			R_Wrist			R_Radius			R_Ulna			L_Elbow			L_ElbowMedial			L_ShoulderAnterior			L_ShoulderPosterior			L_Wrist			L_Ulna			L_Radius			L_Thigh_Superior			L_Thigh_Inferior			L_Thigh_Lateral			L_Knee_Lateral			L_Knee_Medial			L_Patella			L_Shank_Superior			L_Shank_Inferior			L_Shank_Lateral			L_Ankle_Lateral			L_Ankle_Medial			R_Thigh_Superior			R_Thigh_Inferior			R_Thigh_Lateral			R_Knee_Lateral			R_Knee_Medial			R_Patella			R_Shank_Superior			R_Shank_Inferior			R_Shank_Lateral			R_Ankle_Lateral			RankleMedial			R_Heel			R_Toe			R_Midfoot_Medial			R_Midfoot_Lateral			R_Hindfoot			R_Midfoot_Superior			R_ToeMedial			R_ToeLateral			L_Heel			L_Toe			L_Midfoot_Medial			L_Midfoot_Lateral			L_Hindfoot			L_Midfoot_Superior			L_ToeMedial			L_ToeLateral			Oglobal			Sacral			Xglobal			Yglobal			Zglobal			
		X1	Y1	Z1	X2	Y2	Z2	X3	Y3	Z3	X4	Y4	Z4	X5	Y5	Z5	X6	Y6	Z6	X7	Y7	Z7	X8	Y8	Z8	X9	Y9	Z9	X10	Y10	Z10	X11	Y11	Z11	X12	Y12	Z12	X13	Y13	Z13	X14	Y14	Z14	X15	Y15	Z15	X16	Y16	Z16	X17	Y17	Z17	X18	Y18	Z18	X19	Y19	Z19	X20	Y20	Z20	X21	Y21	Z21	X22	Y22	Z22	X23	Y23	Z23	X24	Y24	Z24	X25	Y25	Z25	X26	Y26	Z26	X27	Y27	Z27	X28	Y28	Z28	X29	Y29	Z29	X30	Y30	Z30	X31	Y31	Z31	X32	Y32	Z32	X33	Y33	Z33	X34	Y34	Z34	X35	Y35	Z35	X36	Y36	Z36	X37	Y37	Z37	X38	Y38	Z38	X39	Y39	Z39	X40	Y40	Z40	X41	Y41	Z41	X42	Y42	Z42	X43	Y43	Z43	X44	Y44	Z44	X45	Y45	Z45	X46	Y46	Z46	X47	Y47	Z47	X48	Y48	Z48	X49	Y49	Z49	X50	Y50	Z50	X51	Y51	Z51	X52	Y52	Z52	X53	Y53	Z53	X54	Y54	Z54	X55	Y55	Z55	X56	Y56	Z56	X57	Y57	Z57	X58	Y58	Z58	X59	Y59	Z59	X60	Y60	Z60	X61	Y61	Z61	X62	Y62	Z62	X63	Y63	Z63	X64	Y64	Z64	X65	Y65	Z65	X66	Y66	Z66	X67	Y67	Z67	X68	Y68	Z68	

86	2.325	-580.721	1434.55	181.322	-414.718	1362.63	180.443	-487.687	1372.13	351.479	-503.643	1408.34	6.55788	-387.411	1195.37	177.813	-660.427	1242.96	161.755	-468.863	964.904	303.346	-449.302	961.665	27.9506	-664.977	993.8390000000001	182.209	-660.322	991.484	103.563	-663.379	1042.37	144.333	-538.651	1055.31	439.104	-0	0	0	-0	0	0	-0	0	0	-463.022	785.294	422.085	-458.574	795.575	379.11	-510.581	787.67	429.384	-433.656	1077.02	-78.96599999999999	-0	0	0	-0	0	0	-0	0	0	-279.663	859.276	-63.4767	-324.803	845.566	-65.0351	-277.876	880.221	-20.3367	-527.907	774.725	2.86936	-548.499	557.516	34.5218	-486.79	642.282	55.0281	-0	0	0	-0	0	0	-541.314	442.713	82.0235	-651.168	430.501	22.4569	-852.225	247.394	23.0986	-727.883	304.889	88.87309999999999	-0	0	0	-0	0	0	-509.806	783.3869999999999	325.285	-415.097	586.524	285.076	-392.435	728.063	303.816	-0	0	0	-0	0	0	-315.588	529.193	215.105	-407.007	391.674	295.875	-376.927	186.138	277.452	-333.248	320.568	208.642	-0	0	0	-0	0	0	-447.172	60.7369	216.942	-148.122	58.088	237.202	-221.697	35.5441	180.305	-240.317	31.3172	296.011	-349.746	27.8018	275.969	-285.684	121.26	232.018	-179.419	44.9222	192.415	-191.027	42.8633	283.214	-988.8630000000001	200.442	78.9385	-765.646	31.1328	52.2979	-806.1079999999999	27.036	95.9419	-809.429	29.9225	1.42109	-0	0	0	-826.371	138.96	59.0164	-806.1079999999999	27.036	95.9419	-809.429	29.9225	1.42109	-0	0	0	-662.649	992.662	142.886	-200	0	0	-0	0	200	-0	200	0	
87	2.333333	-571.955	1435.64	182.937	-405.957	1363.53	181.556	-478.174	1372.7	352.635	-494.796	1410.36	8.158759999999999	-378.809	1196.51	178.815	-651.472	1243.9	162.908	-458.925	966.752	304.248	-440.17	962.285	29.6373	-655.6079999999999	994.697	183.819	-651.285	992.1609999999999	104.954	-654.054	1043.11	145.822	-527.092	1055.59	439.862	-0	0	0	-0	0	0	-0	0	0	-452.592	785.597	422.36	-448.048	795.962	379.395	-499.984	788.198	429.99	-427.289	1078.65	-78.242	-0	0	0	-0	0	0	-0	0	0	-277.523	857.808	-63.3375	-322.482	844.669	-64.691	-275.244	878.658	-20.1379	-516.559	775.518	3.37997	-531.072	557.15	34.2475	-471.132	643.171	55.9256	-0	0	0	-0	0	0	-523.01	441.96	80.4686	-633.972	430.107	22.8502	-839.052	252.535	24.1475	-712.807	306.749	88.41119999999999	-0	0	0	-0	0	0	-500.054	783.751	327.097	-407.794	586.36	285.4	-383.851	727.186	305.919	-0	0	0	-0	0	0	-308.379	528.1900000000001	215.511	-402.542	391.497	295.814	-375.268	185.431	277.164	-329.076	319.307	208.971	-0	0	0	-0	0	0	-447.571	60.4329	217.651	-148.208	57.7482	237.007	-222.335	35.0351	179.705	-240.272	30.9489	295.524	-349.765	27.7562	275.964	-285.527	121.013	231.74	-179.459	44.533	192.321	-190.987	42.6936	283.074	-975.121	213.128	81.00369999999999	-763.385	30.1641	52.8334	-804.471	27.14	96.01349999999999	-806.13	31.6067	1.81976	-0	0	0	-817.2809999999999	140.714	60.7955	-804.471	27.14	96.01349999999999	-806.13	31.6067	1.81976	-0	0	0	-653.446	993.429	144.387	-200	0	0	-0	0	200	-0	200	0	
88	2.341667	-563.509	1436.48	184.35	-397.272	1364.56	182.425	-468.781	1373.47	353.703	-485.909	1411.88	10.2199	-370.254	1197.61	179.657	-642.513	1244.61	164.123	-449.052	968.529	305.318	-431.209	962.777	31.203	-646.285	995.692	185.631	-642.278	992.96	106.52	-644.763	1044	147.422	-515.576	1056.25	440.743	-0	0	0	-0	0	0	-0	0	0	-441.849	785.948	422.546	-437.657	796.198	379.587	-489.162	788.658	430.69	-420.722	1080.21	-77.6752	-0	0	0	-0	0	0	-0	0	0	-275.234	856.494	-63.2406	-320.049	844.545	-65.42319999999999	-273.115	876.742	-19.7821	-505.989	777.436	2.81362	-514.383	556.95	33.2549	-455.492	643.971	56.3889	-0	0	0	-0	0	0	-505.405	441.129	79.004	-616.503	429.981	22.8773	-826.053	258.483	25.4701	-697.184	308.74	87.97669999999999	-0	0	0	-0	0	0	-490.965	783.77	328.925	-401.24	586.12	285.574	-375.543	726.02	307.693	-0	0	0	-0	0	0	-302.505	526.975	215.375	-398.372	391.164	295.244	-374.078	184.617	276.895	-325.285	317.912	209.261	-0	0	0	-0	0	0	-447.228	60.5838	216.848	-148.159	57.4317	236.933	-221.859	34.3341	180.297	-240.444	30.9889	296.037	-349.789	27.8062	276.041	-285.403	120.682	231.441	-179.35	44.1438	192.191	-190.95	42.5157	282.95	-960.396	225.885	82.91759999999999	-759.901	28.8333	53.1431	-802.4450000000001	28.1813	96.3428	-802.3	34.0418	2.14651	-0	0	0	-808.956	142.294	63.861	-802.4450000000001	28.1813	96.3428	-802.3	34.0418	2.14651	-0	0	0	-644.282	994.326	146.076	-200	0	0	-0	0	200	-0	200	0	
89	2.35	-555.405	1437.31	185.678	-388.798	1365.5	182.949	-459.247	1374.19	354.655	-477.573	1413.46	11.8104	-361.642	1198.71	180.151	-633.752	1245.57	165.414	-439.378	970.3680000000001	306.609	-422.417	963.707	32.589	-637.081	996.826	187.547	-633.36	993.937	108.237	-635.696	1045.05	149.153	-503.822	1056.78	441.554	-0	0	0	-0	0	0	-0	0	0	-430.283	785.8200000000001	421.896	-427.394	796.452	379.691	-477.946	789.2670000000001	431.402	-414.259	1081.81	-77.58580000000001	-0	0	0	-0	0	0	-0	0	0	-272.804	855.372	-63.1728	-317.811	845.179	-66.9833	-271.163	874.985	-19.46	-495.261	778.658	2.61722	-497.708	557.125	32.4902	-439.827	644.926	56.1399	-0	0	0	-0	0	0	-487.811	440.584	77.38509999999999	-599.236	430.117	22.8498	-812.658	264.745	26.7649	-682.091	311.194	88.1794	-0	0	0	-0	0	0	-482.084	783.939	330.456	-395.082	585.9930000000001	285.562	-367.998	725.044	309.067	-0	0	0	-0	0	0	-296.485	526.019	214.811	-395.083	391.234	294.968	-373.008	184.065	276.653	-321.766	316.653	209.443	-0	0	0	-0	0	0	-447.111	60.5006	216.603	-148.099	56.9797	236.653	-221.818	34.1774	179.639	-240.232	30.5188	295.397	-349.517	27.5984	275.502	-285.352	120.38	231.111	-179.334	43.6375	191.987	-190.851	42.2818	282.786	-944.479	238.803	84.4524	-757.646	26.4487	53.4786	-799.732	29.6089	96.4982	-798.522	36.7826	2.8055	-0	0	0	-799.201	145.838	65.7135	-799.732	29.6089	96.4982	-798.522	36.7826	2.8055	-0	0	0	-635.221	995.381	147.892	-200	0	0	-0	0	200	-0	200	0	
90	2.358333	-547.331	1438.1	187.031	-380.539	1366.58	183.434	-449.826	1375.08	355.577	-470.002	1415.05	13.2392	-353.109	1200.03	180.53	-625.127	1246.39	166.791	-429.598	972.442	307.683	-413.937	964.438	33.9848	-627.953	997.939	189.515	-624.597	994.924	110.303	-626.756	1046.1	150.961	-492.281	1057.52	442.516	-0	0	0	-0	0	0	-0	0	0	-419.272	786.313	422.369	-416.806	796.748	379.783	-466.366	789.907	432.203	-407.86	1083.49	-77.6246	-0	0	0	-0	0	0	-0	0	0	-270.388	854.496	-63.183	-315.515	845.343	-68.6035	-269.69	873.352	-19.0699	-479.224	776.784	7.31674	-481.615	557.955	31.4792	-424.683	646.213	55.0436	-0	0	0	-0	0	0	-470.078	440.726	75.8026	-582.482	430.944	22.5317	-799.039	271.398	28.0941	-666.843	314.637	88.85680000000001	-0	0	0	-0	0	0	-473.23	784.795	331.687	-389.312	586.128	285.794	-360.686	724.48	310.3	-0	0	0	-0	0	0	-290.763	525.155	214.718	-391.975	391.355	294.529	-371.803	183.953	276.461	-318.485	315.74	209.548	-0	0	0	-0	0	0	-447.049	60.2698	216.512	-147.818	56.4175	236.382	-221.76	33.575	179.793	-240.258	30.322	295.55	-349.511	27.5972	275.493	-285.288	119.998	230.929	-179.268	43.2654	191.801	-190.737	42.1975	282.468	-927.752	251.397	86.4021	-754.972	24.3228	53.9834	-796.388	31.3199	96.7505	-794.845	39.7984	3.24151	-0	0	0	-784.644	152.958	63.6802	-796.388	31.3199	96.7505	-794.845	39.7984	3.24151	-0	0	0	-626.275	996.432	149.909	-200	0	0	-0	0	200	-0	200	0	
